<?xml version="1.0" encoding="utf-8"?>
<!-- Generator: Adobe Illustrator 26.0.3, SVG Export Plug-In . SVG Version: 6.00 Build 0)  -->
<svg version="1.1" id="Layer_1" xmlns="http://www.w3.org/2000/svg" xmlns:xlink="http://www.w3.org/1999/xlink" x="0px" y="0px"
	 viewBox="0 0 1000 1000" style="enable-background:new 0 0 1000 1000;" xml:space="preserve">
<style type="text/css">
	.st0{stroke:#000000;stroke-miterlimit:10;}
	.st1{fill:#C2B59B;stroke:#000000;stroke-miterlimit:10;}
	.st2{display:none;fill:#414042;}
</style>
<g id="Layer_2_00000063609561242930878810000015368614227679041414_">
	<g>
		<ellipse class="st0" cx="500" cy="500" rx="381.9" ry="368.5"/>
	</g>
</g>
<g id="Layer_3">
	<path class="st1" d="M743.2,571.9H256.8c-50.9,0-92.2-41.3-92.2-92.2v-8.5c0-83,67.3-150.4,150.4-150.4h370.3
		c82.9,0,150,67.2,150,150v8.8C835.4,530.6,794.1,571.9,743.2,571.9z"/>
</g>
<g id="Layer_4">
	<path d="M582.6,458.1c0,0,115.1-16.3,131.4-37.2s30.2-5.8,30.2,11.6s8.1,37.2-25.6,51.2s-118.6,9.3-136,0
		C565.2,474.4,582.6,458.1,582.6,458.1z"/>
	<path d="M418.1,458.1c0,0-115.1-16.3-131.4-37.2s-30.2-5.8-30.2,11.6s-8.1,37.2,25.6,51.2s118.6,9.3,136.1,0
		C435.6,474.4,418.1,458.1,418.1,458.1z"/>
	<path class="st2" d="M340,173.2c0,0-237.4,108.2-204.6,381.3C157.1,735.6,340,826.7,340,826.7S170.3,698.8,151.6,554.5
		C120.1,310,340,173.2,340,173.2z"/>
</g>
</svg>
